<?xml version="1.0" encoding="UTF-8"?>
<!-- Creator: CorelDRAW -->
<svg xmlns="http://www.w3.org/2000/svg" xmlns:xlink="http://www.w3.org/1999/xlink" xml:space="preserve" width="108.661mm" height="27.3812mm" style="shape-rendering:geometricPrecision; text-rendering:geometricPrecision; image-rendering:optimizeQuality; fill-rule:evenodd; clip-rule:evenodd" viewBox="0 0 108.661 27.3812">
 <defs>
  <style type="text/css">
   <![CDATA[
    .fil1 {fill:#333F44}
    .fil0 {fill:#0884AA;fill-rule:nonzero}
    .fil2 {fill:#84C225;fill-rule:nonzero}
   ]]>
  </style>
 </defs>
 <g id="Layer_x0020_1">
  <metadata id="CorelCorpID_0Corel-Layer"></metadata>
  <g id="_136963728">
   <g>
    <path id="_136964568" class="fil0" d="M46.6625 9.1709l0 -8.9513c0.6967,-0.0671 1.3723,-0.1007 2.027,-0.1007 0.8813,0 1.5883,0.2056 2.1212,0.6169 0.533,0.4113 0.7995,1.0303 0.7995,1.857 0,0.8267 -0.363,1.5065 -1.089,2.0395 -0.7259,0.533 -1.5925,0.7995 -2.5997,0.7995 -0.042,0 -0.0881,0 -0.1385,0l0 -0.4155c0.0336,0 0.063,0 0.0882,0 0.8309,0 1.5527,-0.2182 2.1653,-0.6547 0.6127,-0.4364 0.919,-1.005 0.919,-1.7059 0,-0.7008 -0.214,-1.2086 -0.642,-1.5233 -0.428,-0.3148 -1.0029,-0.4721 -1.7247,-0.4721 -0.3777,0 -0.8184,0.0167 -1.322,0.0503l0 8.4603 -0.6043 0zm7.7929 -3.1222l-1.2967 3.1222 -0.6421 0 3.7895 -9.0646 0.3525 0 3.8021 9.0646 -0.6798 0 -1.2967 -3.1222 -4.0288 0zm1.9892 -4.9352c-0.0084,0.0084 -0.0252,0.0587 -0.0503,0.1511 -0.1175,0.3609 -0.2308,0.6672 -0.34,0.919l-1.3848 3.3489 3.6006 0 -1.3848 -3.3363c-0.2938,-0.6379 -0.4407,-0.9988 -0.4407,-1.0827zm5.8794 8.0574l0 -8.9639c0.7974,-0.0587 1.4646,-0.0881 2.0018,-0.0881 0.8561,0 1.5611,0.2203 2.1151,0.661 0.5539,0.4406 0.8309,1.0638 0.8309,1.8695 0,0.5456 -0.1595,1.0534 -0.4784,1.5234 -0.319,0.47 -0.6757,0.8435 -1.0701,1.1205 0.3105,0.428 0.6945,0.9379 1.1519,1.5296 0.4574,0.5917 0.7533,0.9631 0.8876,1.1142 0.512,0.5456 1.0911,0.8561 1.7374,0.9316l-0.0126 0.4029c-0.512,-0.0084 -0.9275,-0.086 -1.2464,-0.2329 -0.3189,-0.1469 -0.6232,-0.3714 -0.9128,-0.6735 -0.2895,-0.3022 -1.0092,-1.2422 -2.1591,-2.8201 -0.8225,0 -1.5695,-0.0252 -2.241,-0.0756l0 3.7014 -0.6043 0zm2.4802 -4.1294c0.3693,0 0.7638,-0.2434 1.1834,-0.7302 0.4197,-0.4868 0.6295,-1.0513 0.6295,-1.6933 0,-0.6421 -0.2161,-1.1289 -0.6483,-1.4604 -0.4323,-0.3316 -1.0051,-0.4973 -1.7185,-0.4973 -0.3777,0 -0.8184,0.0167 -1.322,0.0503l0 4.2679c0.6715,0.042 1.2968,0.063 1.8759,0.063zm7.4657 -4.3435l-3.0467 0 0 -0.5287 6.6977 0 0 0.5287 -3.0467 0 0 8.4729 -0.6043 0 0 -8.4729zm6.169 0.9065l0.0251 1.0701 0 6.4963 -0.6043 0 0 -9.0772 0.277 0 5.9298 6.8362c0.4028,0.4784 0.7134,0.8603 0.9316,1.1457 -0.0336,-0.4029 -0.0504,-0.8645 -0.0504,-1.3849l0 -6.5214 0.6043 0 0 9.0771 -0.2769 0 -6.0431 -6.9621c-0.4196,-0.4784 -0.6882,-0.7973 -0.8057,-0.9568l0.0126 0.277zm10.4368 7.5664l0 -9.0016 4.1798 0 0 0.5287 -3.5755 0 0 3.3111 3.2356 0 0 0.5162 -3.2356 0 0 4.1168 3.714 0 0 0.5288 -4.3183 0zm6.7355 0l0 -8.9639c0.7974,-0.0587 1.4646,-0.0881 2.0018,-0.0881 0.8561,0 1.5611,0.2203 2.1151,0.661 0.5539,0.4406 0.8309,1.0638 0.8309,1.8695 0,0.5456 -0.1595,1.0534 -0.4784,1.5234 -0.319,0.47 -0.6757,0.8435 -1.0701,1.1205 0.3105,0.428 0.6945,0.9379 1.1519,1.5296 0.4574,0.5917 0.7533,0.9631 0.8876,1.1142 0.512,0.5456 1.0911,0.8561 1.7374,0.9316l-0.0126 0.4029c-0.512,-0.0084 -0.9275,-0.086 -1.2464,-0.2329 -0.3189,-0.1469 -0.6232,-0.3714 -0.9128,-0.6735 -0.2895,-0.3022 -1.0092,-1.2422 -2.1591,-2.8201 -0.8225,0 -1.5695,-0.0252 -2.241,-0.0756l0 3.7014 -0.6043 0zm2.4802 -4.1294c0.3693,0 0.7638,-0.2434 1.1834,-0.7302 0.4197,-0.4868 0.6295,-1.0513 0.6295,-1.6933 0,-0.6421 -0.2161,-1.1289 -0.6483,-1.4604 -0.4323,-0.3316 -1.0051,-0.4973 -1.7185,-0.4973 -0.3777,0 -0.8184,0.0167 -1.322,0.0503l0 4.2679c0.6715,0.042 1.2968,0.063 1.8759,0.063zm9.694 -4.0791c-0.6127,-0.2602 -1.2212,-0.3903 -1.8255,-0.3903 -1.2254,0 -1.8381,0.4533 -1.8381,1.3597 0,0.3945 0.1384,0.7617 0.4154,1.1016 0.277,0.3399 0.6127,0.6421 1.0072,0.9065 0.3945,0.2644 0.7889,0.535 1.1834,0.812 0.3945,0.277 0.7302,0.6085 1.0072,0.9946 0.277,0.3861 0.4155,0.8057 0.4155,1.259 0,0.7637 -0.256,1.3408 -0.768,1.7311 -0.512,0.3902 -1.2191,0.5854 -2.1214,0.5854 -0.9022,0 -1.6722,-0.2308 -2.3101,-0.6925l0.3022 -0.4532c0.6043,0.3945 1.2672,0.5917 1.989,0.5917 0.7218,0 1.2758,-0.1448 1.6619,-0.4343 0.3861,-0.2896 0.5791,-0.7071 0.5791,-1.2527 0,-0.3777 -0.1385,-0.7365 -0.4155,-1.0764 -0.2769,-0.3399 -0.6127,-0.6463 -1.0071,-0.9191 -0.3945,-0.2727 -0.789,-0.5518 -1.1835,-0.8372 -0.3944,-0.2853 -0.7302,-0.6253 -1.007,-1.0197 -0.277,-0.3945 -0.4155,-0.8184 -0.4155,-1.2716 0,-0.5959 0.2203,-1.068 0.661,-1.4163 0.4405,-0.3484 1.0364,-0.5225 1.7876,-0.5225 0.7512,0 1.4499,0.1511 2.0962,0.4532l-0.214 0.491z"></path>
    <path id="_136964520" class="fil1" d="M46.2154 21.9587l62.4473 0 0 5.4193 -62.4473 0 0 -5.4193zm4.1903 3.9977c-0.0996,-0.009 -0.216,-0.0137 -0.3495,-0.0137l-0.1371 0 0.7561 -2.1191c0.0338,-0.0949 0.0504,-0.1507 0.0504,-0.1662 0,-0.0154 -0.0005,-0.0256 -0.0017,-0.0284l0.0017 -0.0037c0.0754,0.0037 0.1555,0.0054 0.2397,0.0054 0.0701,0 0.1532,-0.0012 0.2505,-0.0035l0.0017 0.0035c-0.0023,0.0041 -0.0035,0.0106 -0.0035,0.019 0,0.022 0.0179,0.0801 0.0523,0.1756l0.772 2.1227c-0.0232,-0.0011 -0.0506,-0.0018 -0.0819,-0.0018 0,0 -0.0298,-0.0012 -0.0902,-0.0035 -0.0292,0 -0.0552,0 -0.0784,0l-0.2693 0 -0.1633 -0.5008 -0.7862 0 -0.1633 0.5145zm0.8137 -0.9317l-0.2623 -0.8083 -0.2557 0.8083 0.518 0zm7.1385 -1.4029c0.0718,0.006 0.1312,0.0089 0.1786,0.0089l0.1448 0c0.0487,0 0.0998,-0.0047 0.1525,-0.0142l0 1.4378c0,0.2849 -0.0861,0.514 -0.2587,0.6866 -0.1638,0.1637 -0.3686,0.2452 -0.6153,0.2452 -0.2701,0 -0.4891,-0.0701 -0.6557,-0.2102 -0.1865,-0.1577 -0.2797,-0.3851 -0.2797,-0.6817l0 -1.4724c0.0962,0.006 0.1863,0.0089 0.2718,0.0089 0.0855,0 0.1556,-0.0047 0.2114,-0.0142l0 1.5002c0,0.1459 0.0444,0.2599 0.134,0.3412 0.0831,0.0741 0.1876,0.1109 0.3128,0.1109 0.1852,0 0.3085,-0.0949 0.3703,-0.2848 0.0219,-0.0688 0.0332,-0.1531 0.0332,-0.2539l0 -1.4083zm7.1778 0.1371l-0.0327 0.5114 -0.0125 0.0031c-0.0854,-0.1283 -0.2314,-0.2119 -0.4379,-0.2498 -0.0648,-0.0132 -0.127,-0.0197 -0.187,-0.0197 -0.0599,0 -0.1103,0.0054 -0.1531,0.016 -0.042,0.0102 -0.0782,0.0256 -0.1085,0.0453 -0.0636,0.0414 -0.0956,0.096 -0.0956,0.1631 0,0.0885 0.0279,0.1542 0.0836,0.1981 0.0695,0.0534 0.1846,0.0908 0.3461,0.1122 0.1607,0.0214 0.2901,0.0511 0.3874,0.0878 0.0973,0.0374 0.1775,0.0843 0.2397,0.1412 0.1182,0.1064 0.1775,0.2571 0.1775,0.4518 0,0.255 -0.0962,0.4515 -0.2883,0.5892 -0.1651,0.1187 -0.3721,0.1775 -0.6225,0.1775 -0.2018,0 -0.4011,-0.0381 -0.5983,-0.1147 -0.0646,-0.0254 -0.1215,-0.0551 -0.1703,-0.089l0.0191 -0.5802 0.007 -0.0054c0.1437,0.2479 0.3799,0.372 0.7074,0.372 0.2333,0 0.3875,-0.0563 0.463,-0.1685 0.0253,-0.0385 0.0378,-0.0808 0.0378,-0.1275 0,-0.0469 -0.0076,-0.0862 -0.0225,-0.117 -0.0148,-0.0303 -0.0397,-0.057 -0.0748,-0.079 -0.0671,-0.0439 -0.1804,-0.0734 -0.3389,-0.0883 -0.1589,-0.0155 -0.2889,-0.0439 -0.3897,-0.0855 -0.1004,-0.0415 -0.181,-0.0931 -0.2416,-0.1549 -0.1087,-0.111 -0.1633,-0.2664 -0.1633,-0.4657 0,-0.2067 0.0725,-0.3733 0.2172,-0.501 0.1473,-0.1294 0.3461,-0.1946 0.5953,-0.1946 0.2499,0 0.4688,0.0575 0.6564,0.1721zm6.2341 2.1945c-0.0558,-0.0072 -0.1988,-0.0107 -0.429,-0.0107l-0.0559 0 0 -1.9228 -0.3441 0c-0.1022,0 -0.1626,0.0054 -0.1811,0.0156 -0.0184,0.0107 -0.0332,0.0195 -0.0432,0.0279l-0.0054 -0.0019 0 -0.445 0.0054 -0.0054c0.0378,0.013 0.1412,0.0196 0.3091,0.0196l1.0901 0c0.1021,0 0.1626,-0.0054 0.1809,-0.0161 0.0186,-0.01 0.0333,-0.0195 0.0434,-0.0278l0.0054 0.0018 0 0.445 -0.0054 0.0054c-0.038,-0.0125 -0.1412,-0.0191 -0.3091,-0.0191l-0.2611 0 0 1.9335zm6.4187 -0.9098c-0.035,0.0025 -0.0717,0.0037 -0.1116,0.0037 -0.0391,0 -0.0979,-0.003 -0.1757,-0.0084l0 0.9038 -0.4604 0 0 -2.3244c0.162,-0.0209 0.3615,-0.0315 0.5982,-0.0315 0.3221,0 0.5619,0.0594 0.7203,0.1786 0.1586,0.1187 0.2374,0.3021 0.2374,0.5502 0,0.1921 -0.0723,0.3566 -0.2172,0.4936 -0.0474,0.0439 -0.102,0.0825 -0.1638,0.1145l0.3549 0.7477c0.0695,0.1544 0.1229,0.2457 0.1603,0.2748l-0.009 0.009c-0.1127,-0.019 -0.289,-0.0185 -0.5306,0.0012l-0.4028 -0.9128zm-0.117 -1.0462c-0.0587,0 -0.1157,0.003 -0.1703,0.0084l0 0.664c0.057,0.0084 0.1236,0.0125 0.2,0.0125 0.0767,0 0.1408,-0.0066 0.1928,-0.0202 0.0523,-0.0131 0.0974,-0.0338 0.1361,-0.0617 0.0825,-0.0611 0.1234,-0.1538 0.1234,-0.2766 0,-0.1227 -0.0428,-0.2089 -0.1287,-0.2586 -0.0802,-0.0453 -0.1977,-0.0678 -0.3533,-0.0678zm6.3333 1.959c-0.0997,-0.009 -0.216,-0.0137 -0.3496,-0.0137l-0.137 0 0.756 -2.1191c0.0339,-0.0949 0.0504,-0.1507 0.0504,-0.1662 0,-0.0154 -0.0005,-0.0256 -0.0016,-0.0284l0.0016 -0.0037c0.0755,0.0037 0.1556,0.0054 0.2397,0.0054 0.0702,0 0.1533,-0.0012 0.2506,-0.0035l0.0017 0.0035c-0.0024,0.0041 -0.0035,0.0106 -0.0035,0.019 0,0.022 0.0178,0.0801 0.0522,0.1756l0.7721 2.1227c-0.0232,-0.0011 -0.0506,-0.0018 -0.082,-0.0018 0,0 -0.0297,-0.0012 -0.0901,-0.0035 -0.0292,0 -0.0553,0 -0.0785,0l-0.2692 0 -0.1633 -0.5008 -0.7862 0 -0.1633 0.5145zm0.8136 -0.9317l-0.2622 -0.8083 -0.2558 0.8083 0.518 0zm6.1593 0.918c-0.1702,0 -0.2829,0.0035 -0.3387,0.0107l0 -2.3334c0.0279,0.0072 0.0855,0.0107 0.1726,0.0107 0.0879,0 0.1893,-0.0024 0.3057,-0.0071l0 1.9019 0.3596 0c0.1045,0 0.1874,-0.0035 0.2504,-0.0107 -0.0084,0.2713 -0.0124,0.4125 -0.0124,0.4225l0 0.0179c-0.1133,-0.0083 -0.304,-0.0125 -0.5716,-0.0125l-0.1656 0zm5.9233 -2.3191c0.1157,0.0047 0.1858,0.0071 0.2102,0.0071l0.1252 0c0.0616,0 0.1108,-0.0047 0.1477,-0.0142l-0.0018 2.3262 -0.4813 0 0 -2.3191zm6.0253 2.3328c-0.0997,-0.009 -0.216,-0.0137 -0.3496,-0.0137l-0.137 0 0.756 -2.1191c0.0339,-0.0949 0.0504,-0.1507 0.0504,-0.1662 0,-0.0154 -0.0005,-0.0256 -0.0016,-0.0284l0.0016 -0.0037c0.0755,0.0037 0.1556,0.0054 0.2398,0.0054 0.0701,0 0.1532,-0.0012 0.2505,-0.0035l0.0017 0.0035c-0.0023,0.0041 -0.0035,0.0106 -0.0035,0.019 0,0.022 0.0179,0.0801 0.0522,0.1756l0.7721 2.1227c-0.0232,-0.0011 -0.0506,-0.0018 -0.082,-0.0018 0,0 -0.0297,-0.0012 -0.0901,-0.0035 -0.0292,0 -0.0553,0 -0.0785,0l-0.2692 0 -0.1633 -0.5008 -0.7862 0 -0.1633 0.5145zm0.8136 -0.9317l-0.2622 -0.8083 -0.2558 0.8083 0.518 0z"></path>
    <path id="_136963992" class="fil2" d="M46.7574 18.6027l0 -7.4496 3.8223 0 0 0.4591 -3.2943 0 0 2.709 3.0073 0 0 0.4476 -3.0073 0 0 3.8339 -0.528 0zm8.7467 0.1148c-1.0637,0 -1.9552,-0.3712 -2.6745,-1.1134 -0.7193,-0.7423 -1.079,-1.651 -1.079,-2.7262 0,-1.0752 0.3597,-1.9839 1.079,-2.7262 0.7193,-0.7423 1.6108,-1.1134 2.6745,-1.1134 1.0637,0 1.9552,0.3711 2.6745,1.1134 0.7193,0.7423 1.079,1.651 1.079,2.7262 0,1.0752 -0.3597,1.9839 -1.079,2.7262 -0.7193,0.7422 -1.6108,1.1134 -2.6745,1.1134zm0.0057 -7.2086c-0.9221,0 -1.6873,0.3253 -2.2957,0.9757 -0.6084,0.6505 -0.9125,1.4482 -0.9125,2.3933 0,0.9451 0.3041,1.7409 0.9125,2.3875 0.6084,0.6467 1.3736,0.97 2.2957,0.97 0.9221,0 1.6855,-0.3233 2.29,-0.97 0.6045,-0.6466 0.9068,-1.4424 0.9068,-2.3875 0,-0.9451 -0.3023,-1.7428 -0.9068,-2.3933 -0.6045,-0.6504 -1.3679,-0.9757 -2.29,-0.9757zm5.6303 7.0938l0 -7.4152c0.6581,-0.0535 1.2168,-0.0803 1.6759,-0.0803 0.704,0 1.2856,0.1817 1.7448,0.5452 0.4591,0.3635 0.6887,0.8819 0.6887,1.5554 0,0.4514 -0.1301,0.8685 -0.3903,1.2511 -0.2602,0.3826 -0.5548,0.6926 -0.8839,0.9298 0.9107,1.2091 1.4731,1.9322 1.6874,2.1694 0.4362,0.4515 0.9106,0.7079 1.4233,0.7691l-0.0114 0.3559c-0.4286,-0.0077 -0.7768,-0.0708 -1.0446,-0.1894 -0.2678,-0.1187 -0.5337,-0.3195 -0.7977,-0.6027 -0.2641,-0.2831 -0.8437,-1.0445 -1.7391,-2.2842 -0.6198,0 -1.2282,-0.0191 -1.8251,-0.0574l0 3.0533 -0.528 0zm2.0662 -3.4321c0.2984,0 0.6198,-0.199 0.9642,-0.5969 0.3443,-0.3979 0.5165,-0.8609 0.5165,-1.3889 0,-0.528 -0.1798,-0.9298 -0.5395,-1.2053 -0.3596,-0.2754 -0.8264,-0.4132 -1.4004,-0.4132 -0.3061,0 -0.6657,0.0153 -1.079,0.0459l0 3.501c0.551,0.0383 1.0637,0.0574 1.5382,0.0574zm9.1829 3.4321l0 -8.2072 3.8109 0 0 0.4821 -3.26 0 0 3.0189 2.95 0 0 0.4706 -2.95 0 0 3.7535 3.3862 0 0 0.4821 -3.9371 0zm8.8845 0.1148c-1.0637,0 -1.9552,-0.3712 -2.6745,-1.1134 -0.7193,-0.7423 -1.079,-1.651 -1.079,-2.7262 0,-1.0752 0.3597,-1.9839 1.079,-2.7262 0.7193,-0.7423 1.6108,-1.1134 2.6745,-1.1134 1.0637,0 1.9533,0.3711 2.6688,1.1134 0.7155,0.7423 1.0732,1.6491 1.0732,2.7205 0,0.6351 -0.1339,1.2243 -0.4017,1.7677 -0.2679,0.5433 -0.6352,0.9909 -1.102,1.343 1.8213,1.0789 3.2217,1.7294 4.2012,1.9513 0.505,0.1225 0.991,0.1837 1.4578,0.1837 0.4668,0 0.9699,-0.0536 1.5094,-0.1607 0.5395,-0.1072 0.924,-0.2181 1.1536,-0.3329l0.1263 0.2984c-0.2908,0.1378 -0.7136,0.2736 -1.2684,0.4075 -0.5548,0.1339 -1.0752,0.2009 -1.5611,0.2009 -0.4859,0 -1.0044,-0.0631 -1.5554,-0.1894 -0.5509,-0.1263 -1.1249,-0.3271 -1.7217,-0.6026 -0.5969,-0.2755 -1.058,-0.4993 -1.3832,-0.6715 -0.3252,-0.1722 -0.794,-0.4381 -1.4061,-0.7978 -0.551,0.2985 -1.1479,0.4477 -1.7907,0.4477zm-0.0057 -7.2086c-0.9222,0 -1.6855,0.3253 -2.29,0.9757 -0.6046,0.6505 -0.9068,1.4482 -0.9068,2.3933 0,0.9451 0.3022,1.7409 0.9068,2.3875 0.6045,0.6467 1.3697,0.97 2.2957,0.97 0.4821,0 0.9183,-0.0918 1.3086,-0.2755 -0.8648,-0.5816 -1.5382,-0.8724 -2.0203,-0.8724 -0.2755,0 -0.528,0.0536 -0.7576,0.1607l-0.1721 -0.3214c0.2601,-0.1683 0.5509,-0.2525 0.8723,-0.2525 0.3214,0 0.6352,0.0574 0.9413,0.1722 0.3061,0.1148 0.5643,0.2334 0.7748,0.3558 0.2104,0.1224 0.484,0.2946 0.8207,0.5165 0.4438,-0.2984 0.7939,-0.6982 1.0503,-1.1995 0.2563,-0.5012 0.3845,-1.0503 0.3845,-1.6471 0,-0.9413 -0.3042,-1.7371 -0.9125,-2.3876 -0.6084,-0.6504 -1.3736,-0.9757 -2.2957,-0.9757zm10.9333 6.3247c-0.505,0.5893 -1.2741,0.8839 -2.3072,0.8839 -1.033,0 -1.8021,-0.2946 -2.3072,-0.8839 -0.505,-0.5892 -0.7575,-1.4042 -0.7575,-2.4449l0 -4.2356 0.528 0 0 4.2356c0,1.9054 0.8456,2.8582 2.5367,2.8582 1.6912,0 2.5368,-0.9528 2.5368,-2.8582l0 -4.2356 0.528 0 0 4.2356c0,1.0407 -0.2525,1.8557 -0.7576,2.4449zm3.0304 0.7691l0 -7.4496 0.528 0 0 7.4496 -0.528 0zm4.2012 -6.979l-2.5252 0 0 -0.4706 5.5671 0 0 0.4706 -2.5253 0 0 6.979 -0.5166 0 0 -6.979zm6.2787 6.979l-0.5165 0 0 -2.663 -2.8122 -4.7866 0.6314 0 2.1693 3.6961c0.1684,0.3367 0.264,0.5165 0.287,0.5395 0.0459,-0.0995 0.1416,-0.2755 0.287,-0.528l2.1694 -3.7076 0.5969 0 -2.8123 4.8095 0 2.6401z"></path>
   </g>
   <g>
    <g>
     <path id="_136963128" class="fil2" d="M3.7566 4.7336l0 10.4707 2.5774 0c1.5303,0 2.7184,-0.5236 3.5641,-1.5706 0.8457,-1.0471 1.2686,-2.4029 1.2686,-4.0675 0,-3.2217 -1.6109,-4.8326 -4.8327,-4.8326l-2.5774 0zm10.954 4.8326c0,2.6042 -0.7048,4.638 -2.1143,6.1012 -1.4095,1.4632 -3.4164,2.1948 -6.0206,2.1948l-2.8191 0 0 9.5158 -3.5439 0 0 -25.3024 7.1281 0c4.9132,0 7.3698,2.4969 7.3698,7.4906zm14.5381 17.8118l0 -25.3024 12.2829 0 0 2.7385 -8.739 0 0 9.0209 7.0878 0 0 2.7385 -7.0878 0 0 8.066 9.1417 0 0 2.7385 -12.6856 0z"></path>
     <polygon id="_136963680" class="fil0" points="16.0395,27.378 16.0395,2.0756 27.9198,2.0756 27.9198,4.8141 19.5834,4.8141 19.5834,14.4794 25.8659,14.4794 25.8659,17.2179 19.5834,17.2179 19.5834,27.378 "></polygon>
    </g>
    <polygon id="_136963152" class="fil1" points="-0.0015,0.7249 42.2309,0.7249 42.2309,0.0031 -0.0015,0.0031 "></polygon>
   </g>
  </g>
 </g>
</svg>
